<svg width="42" height="41" viewBox="0 0 42 41" fill="none" xmlns="http://www.w3.org/2000/svg">
<path id="Vector" d="M28.1674 40.6527C28.0415 40.6527 27.8946 40.6527 27.7687 40.6527C27.5169 40.5478 27.3071 40.3379 27.2232 40.0861L22.5648 27.9156C22.3759 27.412 22.6277 26.8454 23.1104 26.6356C24.6002 26.09 25.7963 24.915 26.4258 23.5091C27.7687 20.5084 26.4258 17.0041 23.4251 15.6612C20.4245 14.3182 16.9202 15.6612 15.5772 18.6199C14.9477 20.1097 14.9058 21.7674 15.4723 23.2153C16.1018 24.7681 17.3399 25.9641 18.9136 26.5517C19.4172 26.7405 19.69 27.3071 19.5012 27.8317L14.7169 40.0022C14.633 40.254 14.4441 40.4638 14.1923 40.5687C13.9405 40.6527 13.6677 40.6527 13.4369 40.5687C2.63034 36.393 -2.76245 24.2435 1.41329 13.4369C5.58903 2.63034 17.7386 -2.76245 28.5451 1.41329C33.7281 3.42772 37.9038 7.39362 40.17 12.4717C42.4573 17.5707 42.6042 23.3412 40.5897 28.5241C38.4704 34.1058 34.0848 38.5543 28.5241 40.6527C28.3563 40.6527 28.2933 40.6527 28.1674 40.6527ZM21.012 2.02182C10.5831 1.74903 1.9169 9.99559 1.64411 20.4245C1.45526 28.2304 6.07165 35.3438 13.29 38.3445L17.2559 28.0625C13.4159 25.9641 11.9681 21.1799 14.0454 17.3399C16.1228 13.4999 20.9281 12.073 24.7681 14.1294C28.6081 16.2067 30.0559 21.012 27.9786 24.852C27.2441 26.2159 26.132 27.3281 24.7681 28.0625L28.734 38.4074C33.3084 36.351 36.8966 32.595 38.7222 27.9156C42.5832 18.2212 37.8828 7.24674 28.1884 3.36477C25.9012 2.46247 23.4671 2.00083 21.012 2.02182Z" fill="white"/>
</svg>
