<svg width="44" height="44" viewBox="0 0 44 44" fill="none" xmlns="http://www.w3.org/2000/svg">
<g id="share-variant-outline">
<path id="Vector" d="M33 29.48C31.6067 29.48 30.36 30.03 29.4067 30.8917L16.335 23.2834C16.4267 22.8617 16.5 22.44 16.5 22C16.5 21.56 16.4267 21.1384 16.335 20.7167L29.26 13.1817C30.25 14.0984 31.5517 14.6667 33 14.6667C36.0433 14.6667 38.5 12.21 38.5 9.16669C38.5 6.12335 36.0433 3.66669 33 3.66669C29.9567 3.66669 27.5 6.12335 27.5 9.16669C27.5 9.60669 27.5733 10.0284 27.665 10.45L14.74 17.985C13.75 17.0684 12.4483 16.5 11 16.5C7.95667 16.5 5.5 18.9567 5.5 22C5.5 25.0434 7.95667 27.5 11 27.5C12.4483 27.5 13.75 26.9317 14.74 26.015L27.7933 33.6234C27.7017 34.0084 27.6467 34.4117 27.6467 34.8334C27.6467 37.785 30.0483 40.1684 33 40.1684C35.9517 40.1684 38.3533 37.785 38.3533 34.8334C38.3533 31.8817 35.9517 29.48 33 29.48ZM33 7.33335C34.0083 7.33335 34.8333 8.15835 34.8333 9.16669C34.8333 10.175 34.0083 11 33 11C31.9917 11 31.1667 10.175 31.1667 9.16669C31.1667 8.15835 31.9917 7.33335 33 7.33335ZM11 23.8334C9.99167 23.8334 9.16667 23.0084 9.16667 22C9.16667 20.9917 9.99167 20.1667 11 20.1667C12.0083 20.1667 12.8333 20.9917 12.8333 22C12.8333 23.0084 12.0083 23.8334 11 23.8334ZM33 36.6667C31.9917 36.6667 31.1667 35.8417 31.1667 34.8334C31.1667 33.825 31.9917 33 33 33C34.0083 33 34.8333 33.825 34.8333 34.8334C34.8333 35.8417 34.0083 36.6667 33 36.6667Z" fill="white"/>
</g>
</svg>
