<svg width="43" height="42" viewBox="0 0 43 42" fill="none" xmlns="http://www.w3.org/2000/svg">
<path id="Vector" d="M21.4007 0C18.5903 0 15.8075 0.553545 13.211 1.62903C10.6145 2.70452 8.25536 4.28088 6.26812 6.26812C2.25471 10.2815 0 15.7249 0 21.4007C0 30.8598 6.142 38.8851 14.6381 41.7313C15.7081 41.9026 16.0505 41.2391 16.0505 40.6613C16.0505 40.1691 16.0505 38.8209 16.0505 37.0446C10.1225 38.3286 8.85989 34.1769 8.85989 34.1769C7.87545 31.6944 6.48441 31.031 6.48441 31.031C4.53695 29.7042 6.63421 29.747 6.63421 29.747C8.77428 29.8968 9.90852 31.9512 9.90852 31.9512C11.7704 35.2041 14.9163 34.2411 16.1361 33.7275C16.3287 32.3364 16.8851 31.3948 17.4844 30.8598C12.7334 30.3248 7.74705 28.4843 7.74705 20.3307C7.74705 17.9552 8.56028 16.0505 9.95132 14.5311C9.73732 13.9961 8.98829 11.7704 10.1653 8.88129C10.1653 8.88129 11.963 8.30347 16.0505 11.0642C17.7412 10.5933 19.5816 10.3579 21.4007 10.3579C23.2198 10.3579 25.0602 10.5933 26.7509 11.0642C30.8384 8.30347 32.6361 8.88129 32.6361 8.88129C33.8131 11.7704 33.0641 13.9961 32.8501 14.5311C34.2411 16.0505 35.0543 17.9552 35.0543 20.3307C35.0543 28.5057 30.0466 30.3034 25.2742 30.8384C26.0446 31.5018 26.7509 32.8073 26.7509 34.7975C26.7509 37.6652 26.7509 39.9765 26.7509 40.6613C26.7509 41.2391 27.0933 41.924 28.1847 41.7313C36.6808 38.8637 42.8014 30.8598 42.8014 21.4007C42.8014 18.5903 42.2478 15.8075 41.1724 13.211C40.0969 10.6145 38.5205 8.25536 36.5333 6.26812C34.546 4.28088 32.1868 2.70452 29.5904 1.62903C26.9939 0.553545 24.2111 0 21.4007 0Z" fill="white"/>
</svg>
